<svg width="512" height="512" viewBox="0 0 512 512" fill="none" xmlns="http://www.w3.org/2000/svg">
<path d="M381.7 225.9C381.7 128.3 329.2 95.1 280.1 87.7C280.1 87.2 280.2 86.7 280.2 86.1C280.2 73.8 269.3 64 256 64C242.7 64 232.2 73.8 232.2 86.1C232.2 86.7 232.2 87.2 232.3 87.7C183.1 95.2 130.3 128.5 130.3 226.1C130.3 339.9 102 352.1 64 384.1H448C410.2 352 381.7 339.7 381.7 225.9Z" fill="white"/>
<path d="M256.2 448C283 448 305 428.1 307.9 405H204.5C207.3 428.1 229.4 448 256.2 448Z" fill="white"/>
</svg>
