<svg width="491" height="491" viewBox="0 0 491 491" fill="none" xmlns="http://www.w3.org/2000/svg">
<g clip-path="url(#clip0_10_2)">
<path d="M136.041 415.881C108.841 415.881 79.934 398.494 79.934 366.388V124.788C79.934 95.241 98.707 74.548 125.587 74.548H288.787L253.694 109.641C249.427 113.694 249.321 120.521 253.481 124.681C257.534 128.948 264.361 129.054 268.521 124.894C268.628 124.787 268.734 124.681 268.734 124.681L322.067 71.348C326.227 67.188 326.227 60.468 322.067 56.308L268.734 2.97499C264.467 -1.07801 257.747 -0.972006 253.694 3.18799C249.747 7.34799 249.747 13.855 253.694 18.015L288.894 53.108H125.694C86.761 53.215 58.601 83.295 58.601 124.788V366.388C58.601 406.068 92.628 437.215 136.041 437.215C141.908 437.215 146.708 432.415 146.708 426.548C146.708 420.681 141.908 415.881 136.041 415.881Z" fill="white"/>
<path d="M364.628 53.215C358.761 53.215 353.961 58.015 353.961 63.882C353.961 69.749 358.761 74.549 364.628 74.549C394.281 74.549 410.601 91.402 410.601 121.909V362.229C410.601 388.896 396.308 415.882 364.308 415.882H222.974L258.067 380.789C262.12 376.522 262.014 369.802 257.854 365.749C253.694 361.802 247.187 361.802 243.027 365.749L189.694 419.082C185.534 423.242 185.534 429.962 189.694 434.122L243.027 487.455C247.294 491.508 254.014 491.402 258.067 487.242C262.014 483.082 262.014 476.575 258.067 472.415L222.974 437.215H364.201C403.988 437.215 431.828 406.388 431.828 362.228V121.908C431.934 79.561 406.121 53.215 364.628 53.215Z" fill="white"/>
</g>
<defs>
<clipPath id="clip0_10_2">
<rect width="490.429" height="490.429" fill="white"/>
</clipPath>
</defs>
</svg>
