<svg width="256" height="256" viewBox="0 0 256 256" fill="none" xmlns="http://www.w3.org/2000/svg">
<path d="M182.448 35.6184C197.082 35.6184 210.836 41.318 221.185 51.6642C242.544 73.0231 242.544 107.778 221.185 129.14L166.738 183.587L128 222.323L89.2621 183.585L34.8146 129.137C13.4557 107.778 13.4557 73.0231 34.8146 51.6614C45.1607 41.3152 58.9183 35.6156 73.5524 35.6156C88.1866 35.6156 101.941 41.3152 112.29 51.6614L116.119 55.4901L128 67.3739L139.881 55.4929L143.71 51.6642C154.059 41.3152 167.816 35.6184 182.448 35.6184ZM182.448 18.8136C164.128 18.8136 145.805 25.8016 131.829 39.7804L128 43.6091L124.171 39.7804C110.192 25.8016 91.8725 18.8136 73.5524 18.8136C55.2324 18.8136 36.9096 25.8016 22.9308 39.7804C-5.02681 67.738 -5.02681 113.063 22.9308 141.021L77.3783 195.468C77.3783 195.468 77.3783 195.468 77.3811 195.468L128 246.09L178.619 195.471L233.066 141.024C261.024 113.066 261.024 67.7408 233.066 39.7832C219.09 25.8016 200.77 18.8136 182.448 18.8136Z" fill="white"/>
</svg>
