<svg width="321" height="321" viewBox="0 0 321 321" fill="none" xmlns="http://www.w3.org/2000/svg">
<g clip-path="url(#clip0_11_2)">
<path d="M51.213 175.001H224.998C233.282 175.001 239.998 168.285 239.998 160.001C239.998 151.717 233.282 145.001 224.998 145.001H51.213L70.607 125.607C76.465 119.749 76.465 110.252 70.607 104.394C64.75 98.536 55.252 98.536 49.394 104.394L4.39598 149.393C4.04498 149.744 3.71298 150.112 3.39898 150.496C3.26198 150.663 3.14298 150.84 3.01398 151.011C2.84898 151.231 2.67898 151.446 2.52598 151.675C2.38598 151.884 2.26498 152.101 2.13698 152.315C2.01398 152.521 1.88498 152.722 1.77198 152.934C1.65398 153.154 1.55498 153.38 1.44898 153.604C1.34498 153.823 1.23598 154.039 1.14298 154.263C1.05298 154.482 0.978977 154.705 0.899977 154.927C0.812977 155.167 0.720977 155.404 0.646977 155.649C0.579977 155.871 0.530977 156.096 0.474977 156.321C0.411977 156.57 0.341977 156.818 0.291977 157.072C0.240977 157.331 0.209977 157.593 0.172977 157.854C0.140977 158.077 0.0979766 158.297 0.0759766 158.523C0.0279766 159.007 0.00297656 159.494 0.00197656 159.98C0.00197656 159.987 0.000976562 159.995 0.000976562 160.002C0.000976562 160.009 0.00197656 160.017 0.00197656 160.024C0.00297656 160.511 0.0279766 160.997 0.0759766 161.482C0.0979766 161.705 0.139977 161.922 0.170977 162.143C0.208977 162.407 0.239977 162.671 0.291977 162.933C0.341977 163.185 0.410977 163.429 0.473977 163.676C0.530977 163.903 0.580977 164.132 0.648977 164.357C0.721977 164.598 0.812977 164.831 0.896977 165.067C0.977977 165.293 1.05198 165.52 1.14398 165.742C1.23498 165.962 1.34198 166.173 1.44398 166.388C1.55198 166.617 1.65398 166.848 1.77398 167.073C1.88398 167.278 2.00898 167.473 2.12798 167.672C2.25898 167.893 2.38398 168.116 2.52798 168.331C2.67398 168.55 2.83698 168.755 2.99398 168.966C3.12998 169.147 3.25598 169.334 3.40098 169.51C3.69998 169.874 4.01698 170.223 4.34798 170.558C4.36398 170.574 4.37698 170.592 4.39298 170.608L49.393 215.609C52.323 218.538 56.161 220.003 60 220.003C63.838 220.002 67.678 218.538 70.606 215.61C76.464 209.752 76.464 200.255 70.607 194.397L51.213 175.001Z" fill="white"/>
<path d="M305.002 25H115.002C106.718 25 100.002 31.716 100.002 40V100C100.002 108.284 106.718 115 115.002 115C123.286 115 130.002 108.284 130.002 100V55H290.002V265.001H130.002V220C130.002 211.716 123.286 205 115.002 205C106.718 205 100.002 211.716 100.002 220V280.001C100.002 288.285 106.718 295.001 115.002 295.001H305.002C313.286 295.001 320.002 288.285 320.002 280.001V40C320.002 31.716 313.286 25 305.002 25Z" fill="white"/>
</g>
<defs>
<clipPath id="clip0_11_2">
<rect width="320.002" height="320.002" fill="white"/>
</clipPath>
</defs>
</svg>
