<svg width="512" height="512" viewBox="0 0 512 512" fill="none" xmlns="http://www.w3.org/2000/svg">
<path d="M393 450C390.381 450 387.808 449.31 385.54 448L257 374.29L128.46 448C126.18 449.307 123.597 449.992 120.969 449.987C118.341 449.981 115.76 449.285 113.486 447.969C111.211 446.652 109.323 444.761 108.009 442.485C106.695 440.209 106.002 437.628 106 435V63C106 59.0218 107.58 55.2064 110.393 52.3934C113.206 49.5804 117.022 48 121 48H393C396.978 48 400.794 49.5804 403.607 52.3934C406.42 55.2064 408 59.0218 408 63V435C408 438.978 406.42 442.794 403.607 445.607C400.794 448.42 396.978 450 393 450ZM257 342C259.619 342 262.192 342.69 264.46 344L378 409.1V78H136V409.1L249.54 344C251.808 342.69 254.381 342 257 342V342Z" fill="white"/>
</svg>
