<svg width="344" height="90" viewBox="0 0 344 90" fill="none" xmlns="http://www.w3.org/2000/svg">
<path d="M68 0H22C9.84974 0 0 9.84974 0 22V68C0 80.1503 9.84974 90 22 90H68C80.1503 90 90 80.1503 90 68V22C90 9.84974 80.1503 0 68 0Z" fill="#FFFEFE"/>
<path d="M30.1316 17.8132C29.4223 18.5229 28.9157 21.9703 28.9157 25.8232V32.718L25.6734 33.0222L22.3298 33.3263L22.0258 41.4378C21.9245 45.8991 22.1271 49.9548 22.5324 50.5632C23.039 51.0701 26.8893 53.4022 31.2461 55.5314C35.7043 57.8635 38.6426 59.9927 38.136 60.4997C37.7307 60.9052 34.3871 63.0345 30.8408 65.0624C24.4575 68.8139 22.3298 71.8557 25.1668 72.971C25.9774 73.2752 30.4355 71.1459 35.0963 68.4083C39.7571 65.5693 44.0126 63.2373 44.6206 63.2373C45.1272 63.2373 49.5853 65.5693 54.5501 68.4083C62.6558 73.0724 63.6691 73.478 65.0876 72.0585C67.2153 69.9292 66.4048 69.0167 58.299 64.5554C54.3475 62.5275 51.2065 60.4997 51.2065 60.1955C51.2065 59.4857 53.3342 58.1676 61.0347 54.2133C64.4796 52.3882 67.5193 50.1576 67.8233 49.245C68.1272 48.3325 68.0259 44.2768 67.6206 40.4238C66.9114 33.6305 66.81 33.3263 64.1757 33.0222C61.44 32.718 61.3387 32.5152 61.3387 25.8232C61.3387 21.4633 60.8321 18.5229 60.1228 17.8132C59.2109 17.2048 56.6779 17.1034 52.7263 17.7118C47.2549 18.5229 39.1492 18.2188 33.3739 17.1034C32.2593 16.7993 30.7395 17.2048 30.1316 17.8132ZM55.2594 27.3441C55.2594 31.1971 55.0567 31.6026 52.1184 32.211C50.3959 32.5152 47.2549 32.8194 45.1272 32.8194C42.9994 32.8194 39.8585 32.5152 38.136 32.211C35.1977 31.6026 34.995 31.1971 34.995 27.3441V23.187H45.1272H55.2594V27.3441ZM55.2594 40.9308V44.074L44.9245 43.7698L34.4884 43.4656L34.1844 40.6266L33.8805 37.889H44.5193H55.2594V40.9308ZM28.9157 42.5531C28.9157 44.6824 28.5104 45.8991 27.9025 45.4935C27.3959 45.1893 26.8893 43.567 26.8893 41.8433C26.8893 40.2211 27.3959 38.9029 27.9025 38.9029C28.5104 38.9029 28.9157 40.5252 28.9157 42.5531ZM62.0479 44.1754C61.8453 45.4935 61.6426 44.6824 61.6426 42.4517C61.5413 40.2211 61.744 39.2071 62.0479 40.1197C62.2506 41.1336 62.2506 42.9587 62.0479 44.1754ZM54.2461 50.8673C54.2461 51.3743 52.1184 52.8952 49.484 54.4161L44.6206 57.0523L39.8585 54.3147C37.1228 52.7938 34.995 51.2729 34.995 50.7659C34.995 50.3604 39.3518 50.0562 44.6206 50.0562C49.8893 50.0562 54.2461 50.4618 54.2461 50.8673Z" fill="black"/>
<path d="M129.88 39.96C129.88 41.5867 129.507 43.08 128.76 44.44C128.013 45.7733 126.867 46.8533 125.32 47.68C123.773 48.5067 121.853 48.92 119.56 48.92H115.32V59H108.48V30.92H119.56C121.8 30.92 123.693 31.3067 125.24 32.08C126.787 32.8533 127.947 33.92 128.72 35.28C129.493 36.64 129.88 38.2 129.88 39.96ZM119.04 43.48C120.347 43.48 121.32 43.1733 121.96 42.56C122.6 41.9467 122.92 41.08 122.92 39.96C122.92 38.84 122.6 37.9733 121.96 37.36C121.32 36.7467 120.347 36.44 119.04 36.44H115.32V43.48H119.04ZM144.321 59.32C142.134 59.32 140.161 58.8533 138.401 57.92C136.668 56.9867 135.294 55.6533 134.281 53.92C133.294 52.1867 132.801 50.16 132.801 47.84C132.801 45.5467 133.308 43.5333 134.321 41.8C135.334 40.04 136.721 38.6933 138.481 37.76C140.241 36.8267 142.214 36.36 144.401 36.36C146.588 36.36 148.561 36.8267 150.321 37.76C152.081 38.6933 153.468 40.04 154.481 41.8C155.494 43.5333 156.001 45.5467 156.001 47.84C156.001 50.1333 155.481 52.16 154.441 53.92C153.428 55.6533 152.028 56.9867 150.241 57.92C148.481 58.8533 146.508 59.32 144.321 59.32ZM144.321 53.4C145.628 53.4 146.734 52.92 147.641 51.96C148.574 51 149.041 49.6267 149.041 47.84C149.041 46.0533 148.588 44.68 147.681 43.72C146.801 42.76 145.708 42.28 144.401 42.28C143.068 42.28 141.961 42.76 141.081 43.72C140.201 44.6533 139.761 46.0267 139.761 47.84C139.761 49.6267 140.188 51 141.041 51.96C141.921 52.92 143.014 53.4 144.321 53.4ZM167.19 39.84C167.856 38.8 168.776 37.96 169.95 37.32C171.123 36.68 172.496 36.36 174.07 36.36C175.91 36.36 177.576 36.8267 179.07 37.76C180.563 38.6933 181.736 40.0267 182.59 41.76C183.47 43.4933 183.91 45.5067 183.91 47.8C183.91 50.0933 183.47 52.12 182.59 53.88C181.736 55.6133 180.563 56.96 179.07 57.92C177.576 58.8533 175.91 59.32 174.07 59.32C172.523 59.32 171.15 59 169.95 58.36C168.776 57.72 167.856 56.8933 167.19 55.88V69.64H160.35V36.68H167.19V39.84ZM176.95 47.8C176.95 46.0933 176.47 44.76 175.51 43.8C174.576 42.8133 173.416 42.32 172.03 42.32C170.67 42.32 169.51 42.8133 168.55 43.8C167.616 44.7867 167.15 46.1333 167.15 47.84C167.15 49.5467 167.616 50.8933 168.55 51.88C169.51 52.8667 170.67 53.36 172.03 53.36C173.39 53.36 174.55 52.8667 175.51 51.88C176.47 50.8667 176.95 49.5067 176.95 47.8ZM187.058 44.92C187.058 42.1467 187.658 39.68 188.858 37.52C190.058 35.3333 191.725 33.64 193.858 32.44C196.018 31.2133 198.458 30.6 201.178 30.6C204.511 30.6 207.365 31.48 209.738 33.24C212.111 35 213.698 37.4 214.498 40.44H206.978C206.418 39.2667 205.618 38.3733 204.578 37.76C203.565 37.1467 202.405 36.84 201.098 36.84C198.991 36.84 197.285 37.5733 195.978 39.04C194.671 40.5067 194.018 42.4667 194.018 44.92C194.018 47.3733 194.671 49.3333 195.978 50.8C197.285 52.2667 198.991 53 201.098 53C202.405 53 203.565 52.6933 204.578 52.08C205.618 51.4667 206.418 50.5733 206.978 49.4H214.498C213.698 52.44 212.111 54.84 209.738 56.6C207.365 58.3333 204.511 59.2 201.178 59.2C198.458 59.2 196.018 58.6 193.858 57.4C191.725 56.1733 190.058 54.48 188.858 52.32C187.658 50.16 187.058 47.6933 187.058 44.92ZM229.567 59.32C227.38 59.32 225.407 58.8533 223.647 57.92C221.914 56.9867 220.54 55.6533 219.527 53.92C218.54 52.1867 218.047 50.16 218.047 47.84C218.047 45.5467 218.554 43.5333 219.567 41.8C220.58 40.04 221.967 38.6933 223.727 37.76C225.487 36.8267 227.46 36.36 229.647 36.36C231.834 36.36 233.807 36.8267 235.567 37.76C237.327 38.6933 238.714 40.04 239.727 41.8C240.74 43.5333 241.247 45.5467 241.247 47.84C241.247 50.1333 240.727 52.16 239.687 53.92C238.674 55.6533 237.274 56.9867 235.487 57.92C233.727 58.8533 231.754 59.32 229.567 59.32ZM229.567 53.4C230.874 53.4 231.98 52.92 232.887 51.96C233.82 51 234.287 49.6267 234.287 47.84C234.287 46.0533 233.834 44.68 232.927 43.72C232.047 42.76 230.954 42.28 229.647 42.28C228.314 42.28 227.207 42.76 226.327 43.72C225.447 44.6533 225.007 46.0267 225.007 47.84C225.007 49.6267 225.434 51 226.287 51.96C227.167 52.92 228.26 53.4 229.567 53.4ZM252.436 40.4C253.236 39.1733 254.236 38.2133 255.436 37.52C256.636 36.8 257.969 36.44 259.436 36.44V43.68H257.556C255.849 43.68 254.569 44.0533 253.716 44.8C252.862 45.52 252.436 46.8 252.436 48.64V59H245.596V36.68H252.436V40.4ZM277.025 36.44C279.638 36.44 281.718 37.2933 283.265 39C284.838 40.68 285.625 43 285.625 45.96V59H278.825V46.88C278.825 45.3867 278.438 44.2267 277.665 43.4C276.892 42.5733 275.852 42.16 274.545 42.16C273.238 42.16 272.198 42.5733 271.425 43.4C270.652 44.2267 270.265 45.3867 270.265 46.88V59H263.425V36.68H270.265V39.64C270.958 38.6533 271.892 37.88 273.065 37.32C274.238 36.7333 275.558 36.44 277.025 36.44ZM311.298 30.92V36.4H303.858V59H297.018V36.4H289.578V30.92H311.298ZM325.491 52.6L330.331 36.68H337.611L329.691 59H321.251L313.331 36.68H320.651L325.491 52.6Z" fill="white"/>
</svg>
